<svg xmlns="http://www.w3.org/2000/svg" xmlns:xlink="http://www.w3.org/1999/xlink" width="120" zoomAndPan="magnify" viewBox="0 0 90 89.999999" height="120" preserveAspectRatio="xMidYMid meet" version="1.0"><defs><g/><clipPath id="b4a777144c"><rect x="0" width="90" y="0" height="90"/></clipPath></defs><rect x="-9" width="108" fill="#ffffff" y="-9" height="107.999999" fill-opacity="1"/><rect x="-9" width="108" fill="#fdf9b4" y="-9" height="107.999999" fill-opacity="1"/><g transform="matrix(1, 0, 0, 1, 0, -0.00000000000000949)"><g clip-path="url(#b4a777144c)"><g fill="#1b1a1a" fill-opacity="1"><g transform="translate(8.026208, 76.926584)"><g><path d="M 7.382812 -1.167969 L 10.105469 -18.019531 L 11.21875 -17.839844 L 10.097656 -17.957031 L 10.261719 -19.542969 L 12.351562 -19.785156 L 12.875 -18.28125 L 11.8125 -17.910156 L 12.851562 -18.339844 L 19.371094 -2.558594 L 18.328125 -2.128906 L 18.199219 -3.246094 L 26.097656 -4.164062 L 26.226562 -3.046875 L 25.199219 -2.59375 L 12.84375 -30.65625 L 18.613281 -58.027344 L 19.714844 -57.796875 L 19.84375 -56.675781 L 11.945312 -55.757812 L 11.816406 -56.878906 L 12.921875 -56.664062 L 10.136719 -42.292969 L 9.820312 -40.785156 L 7.910156 -40.566406 L 7.265625 -41.945312 L 1.253906 -55.308594 L 2.277344 -55.769531 L 2.410156 -54.652344 L -5.488281 -53.734375 L -5.621094 -54.851562 L -4.601562 -55.328125 L 7.292969 -30.011719 L 1.703125 0.136719 L 0.597656 -0.0703125 L 0.464844 -1.1875 L 8.363281 -2.105469 L 8.492188 -0.988281 Z M 9.46875 0.03125 L -0.789062 1.222656 L 5.015625 -30.066406 L 6.121094 -29.859375 L 5.101562 -29.382812 L -7.304688 -55.789062 L 2.964844 -56.980469 L 9.304688 -42.898438 L 9.605469 -42.253906 L 8.585938 -41.777344 L 8.457031 -42.894531 L 8.753906 -42.929688 L 8.882812 -41.8125 L 7.785156 -42.042969 L 7.925781 -42.722656 L 10.867188 -57.898438 L 21.136719 -59.09375 L 15.117188 -30.546875 L 14.019531 -30.777344 L 15.046875 -31.230469 L 27.871094 -2.105469 L 17.613281 -0.914062 L 10.761719 -17.511719 L 10.523438 -18.195312 L 11.585938 -18.5625 L 11.714844 -17.445312 L 11.417969 -17.410156 L 11.289062 -18.53125 L 12.40625 -18.414062 L 12.332031 -17.695312 L 9.605469 -0.808594 Z M 9.46875 0.03125 "/></g></g></g><g fill="#1b1a1a" fill-opacity="1"><g transform="translate(34.476963, 73.852519)"><g><path d="M 7.382812 -1.167969 L 10.105469 -18.019531 L 11.21875 -17.839844 L 10.097656 -17.957031 L 10.261719 -19.542969 L 12.351562 -19.785156 L 12.875 -18.28125 L 11.8125 -17.910156 L 12.851562 -18.339844 L 19.371094 -2.558594 L 18.328125 -2.128906 L 18.199219 -3.246094 L 26.097656 -4.164062 L 26.226562 -3.046875 L 25.199219 -2.59375 L 12.84375 -30.65625 L 18.613281 -58.027344 L 19.714844 -57.796875 L 19.84375 -56.675781 L 11.945312 -55.757812 L 11.816406 -56.878906 L 12.921875 -56.664062 L 10.136719 -42.292969 L 9.820312 -40.785156 L 7.910156 -40.566406 L 7.265625 -41.945312 L 1.253906 -55.308594 L 2.277344 -55.769531 L 2.410156 -54.652344 L -5.488281 -53.734375 L -5.621094 -54.851562 L -4.601562 -55.328125 L 7.292969 -30.011719 L 1.703125 0.136719 L 0.597656 -0.0703125 L 0.464844 -1.1875 L 8.363281 -2.105469 L 8.492188 -0.988281 Z M 9.46875 0.03125 L -0.789062 1.222656 L 5.015625 -30.066406 L 6.121094 -29.859375 L 5.101562 -29.382812 L -7.304688 -55.789062 L 2.964844 -56.980469 L 9.304688 -42.898438 L 9.605469 -42.253906 L 8.585938 -41.777344 L 8.457031 -42.894531 L 8.753906 -42.929688 L 8.882812 -41.8125 L 7.785156 -42.042969 L 7.925781 -42.722656 L 10.867188 -57.898438 L 21.136719 -59.09375 L 15.117188 -30.546875 L 14.019531 -30.777344 L 15.046875 -31.230469 L 27.871094 -2.105469 L 17.613281 -0.914062 L 10.761719 -17.511719 L 10.523438 -18.195312 L 11.585938 -18.5625 L 11.714844 -17.445312 L 11.417969 -17.410156 L 11.289062 -18.53125 L 12.40625 -18.414062 L 12.332031 -17.695312 L 9.605469 -0.808594 Z M 9.46875 0.03125 "/></g></g></g><g fill="#1b1a1a" fill-opacity="1"><g transform="translate(60.927718, 70.778455)"><g><path d="M 7.382812 -1.167969 L 10.105469 -18.019531 L 11.21875 -17.839844 L 10.097656 -17.957031 L 10.261719 -19.542969 L 12.351562 -19.785156 L 12.875 -18.28125 L 11.8125 -17.910156 L 12.851562 -18.339844 L 19.371094 -2.558594 L 18.328125 -2.128906 L 18.199219 -3.246094 L 26.097656 -4.164062 L 26.226562 -3.046875 L 25.199219 -2.59375 L 12.84375 -30.65625 L 18.613281 -58.027344 L 19.714844 -57.796875 L 19.84375 -56.675781 L 11.945312 -55.757812 L 11.816406 -56.878906 L 12.921875 -56.664062 L 10.136719 -42.292969 L 9.820312 -40.785156 L 7.910156 -40.566406 L 7.265625 -41.945312 L 1.253906 -55.308594 L 2.277344 -55.769531 L 2.410156 -54.652344 L -5.488281 -53.734375 L -5.621094 -54.851562 L -4.601562 -55.328125 L 7.292969 -30.011719 L 1.703125 0.136719 L 0.597656 -0.0703125 L 0.464844 -1.1875 L 8.363281 -2.105469 L 8.492188 -0.988281 Z M 9.46875 0.03125 L -0.789062 1.222656 L 5.015625 -30.066406 L 6.121094 -29.859375 L 5.101562 -29.382812 L -7.304688 -55.789062 L 2.964844 -56.980469 L 9.304688 -42.898438 L 9.605469 -42.253906 L 8.585938 -41.777344 L 8.457031 -42.894531 L 8.753906 -42.929688 L 8.882812 -41.8125 L 7.785156 -42.042969 L 7.925781 -42.722656 L 10.867188 -57.898438 L 21.136719 -59.09375 L 15.117188 -30.546875 L 14.019531 -30.777344 L 15.046875 -31.230469 L 27.871094 -2.105469 L 17.613281 -0.914062 L 10.761719 -17.511719 L 10.523438 -18.195312 L 11.585938 -18.5625 L 11.714844 -17.445312 L 11.417969 -17.410156 L 11.289062 -18.53125 L 12.40625 -18.414062 L 12.332031 -17.695312 L 9.605469 -0.808594 Z M 9.46875 0.03125 "/></g></g></g><g fill="#1b1a1a" fill-opacity="1"><g transform="translate(8.026208, 76.926584)"><g><path d="M 8.484375 -0.984375 L 11.21875 -17.84375 L 11.296875 -18.546875 L 11.59375 -18.578125 L 11.8125 -17.90625 L 18.328125 -2.125 L 26.234375 -3.046875 L 14.03125 -30.78125 L 19.71875 -57.796875 L 11.8125 -56.875 L 9.03125 -42.515625 L 8.890625 -41.828125 L 8.59375 -41.796875 L 8.28125 -42.421875 L 2.28125 -55.765625 L -5.609375 -54.859375 L 6.125 -29.859375 L 0.59375 -0.0625 Z M 8.484375 -0.984375 "/></g></g></g><g fill="#1b1a1a" fill-opacity="1"><g transform="translate(34.476963, 73.852519)"><g><path d="M 8.484375 -0.984375 L 11.21875 -17.84375 L 11.296875 -18.546875 L 11.59375 -18.578125 L 11.8125 -17.90625 L 18.328125 -2.125 L 26.234375 -3.046875 L 14.03125 -30.78125 L 19.71875 -57.796875 L 11.8125 -56.875 L 9.03125 -42.515625 L 8.890625 -41.828125 L 8.59375 -41.796875 L 8.28125 -42.421875 L 2.28125 -55.765625 L -5.609375 -54.859375 L 6.125 -29.859375 L 0.59375 -0.0625 Z M 8.484375 -0.984375 "/></g></g></g><g fill="#1b1a1a" fill-opacity="1"><g transform="translate(60.927718, 70.778455)"><g><path d="M 8.484375 -0.984375 L 11.21875 -17.84375 L 11.296875 -18.546875 L 11.59375 -18.578125 L 11.8125 -17.90625 L 18.328125 -2.125 L 26.234375 -3.046875 L 14.03125 -30.78125 L 19.71875 -57.796875 L 11.8125 -56.875 L 9.03125 -42.515625 L 8.890625 -41.828125 L 8.59375 -41.796875 L 8.28125 -42.421875 L 2.28125 -55.765625 L -5.609375 -54.859375 L 6.125 -29.859375 L 0.59375 -0.0625 Z M 8.484375 -0.984375 "/></g></g></g></g></g></svg>