<svg xmlns="http://www.w3.org/2000/svg" xmlns:xlink="http://www.w3.org/1999/xlink" width="120" zoomAndPan="magnify" viewBox="0 0 90 89.999999" height="120" preserveAspectRatio="xMidYMid meet" version="1.0"><defs><filter x="0%" y="0%" width="100%" height="100%" id="84dedab8e4"><feColorMatrix values="0 0 0 0 1 0 0 0 0 1 0 0 0 0 1 0 0 0 1 0" color-interpolation-filters="sRGB"/></filter><clipPath id="369b0b91bb"><path d="M 23.75 23.75 L 66.5 23.75 L 66.5 66.5 L 23.75 66.5 Z M 23.75 23.75 " clip-rule="nonzero"/></clipPath><mask id="33b356166b"><g filter="url(#84dedab8e4)"><rect x="-9" width="108" fill="#000000" y="-9" height="107.999999" fill-opacity="0.25"/></g></mask><clipPath id="b2bf479b2f"><path d="M 0.441406 0.113281 L 76.519531 0.113281 L 76.519531 77 L 0.441406 77 Z M 0.441406 0.113281 " clip-rule="nonzero"/></clipPath><clipPath id="97c760d3d1"><rect x="0" width="77" y="0" height="78"/></clipPath><mask id="225dfc4a7e"><g filter="url(#84dedab8e4)"><rect x="-9" width="108" fill="#000000" y="-9" height="107.999999" fill-opacity="0.7"/></g></mask><clipPath id="4cadc70f98"><path d="M 0.160156 1.082031 L 62.558594 1.082031 L 62.558594 64.320312 L 0.160156 64.320312 Z M 0.160156 1.082031 " clip-rule="nonzero"/></clipPath><clipPath id="ee98f8857c"><rect x="0" width="63" y="0" height="65"/></clipPath></defs><rect x="-9" width="108" fill="#ffffff" y="-9" height="107.999999" fill-opacity="1"/><rect x="-9" width="108" fill="#ffffff" y="-9" height="107.999999" fill-opacity="1"/><g clip-path="url(#369b0b91bb)"><path fill="#8c52ff" d="M 44.996094 23.75 C 33.28125 23.75 23.75 33.28125 23.75 44.996094 C 23.75 56.710938 33.28125 66.242188 44.996094 66.242188 C 56.710938 66.242188 66.242188 56.710938 66.242188 44.996094 C 66.242188 33.28125 56.710938 23.75 44.996094 23.75 Z M 44.996094 62.78125 C 35.1875 62.78125 27.210938 54.800781 27.210938 44.996094 C 27.210938 35.1875 35.1875 27.210938 44.996094 27.210938 C 54.804688 27.210938 62.78125 35.1875 62.78125 44.996094 C 62.78125 54.804688 54.804688 62.78125 44.996094 62.78125 Z M 44.996094 62.78125 " fill-opacity="1" fill-rule="nonzero"/></g><path fill="#8c52ff" d="M 61.855469 44.996094 C 61.855469 45.546875 61.828125 46.097656 61.777344 46.648438 C 61.722656 47.199219 61.640625 47.742188 61.53125 48.285156 C 61.425781 48.828125 61.292969 49.363281 61.132812 49.890625 C 60.96875 50.417969 60.785156 50.9375 60.574219 51.449219 C 60.363281 51.957031 60.125 52.457031 59.867188 52.945312 C 59.605469 53.429688 59.320312 53.902344 59.015625 54.363281 C 58.707031 54.824219 58.378906 55.265625 58.03125 55.691406 C 57.679688 56.121094 57.308594 56.527344 56.917969 56.917969 C 56.527344 57.308594 56.121094 57.679688 55.691406 58.03125 C 55.265625 58.378906 54.824219 58.707031 54.363281 59.015625 C 53.90625 59.320312 53.429688 59.605469 52.945312 59.867188 C 52.457031 60.125 51.957031 60.363281 51.449219 60.574219 C 50.9375 60.785156 50.417969 60.96875 49.890625 61.128906 C 49.363281 61.292969 48.828125 61.425781 48.285156 61.53125 C 47.742188 61.640625 47.199219 61.722656 46.648438 61.777344 C 46.097656 61.828125 45.546875 61.855469 44.996094 61.855469 C 44.445312 61.855469 43.894531 61.828125 43.34375 61.777344 C 42.792969 61.722656 42.25 61.640625 41.707031 61.53125 C 41.164062 61.425781 40.628906 61.292969 40.101562 61.128906 C 39.574219 60.96875 39.054688 60.785156 38.542969 60.574219 C 38.035156 60.363281 37.535156 60.125 37.046875 59.867188 C 36.5625 59.605469 36.089844 59.320312 35.628906 59.015625 C 35.167969 58.707031 34.726562 58.378906 34.300781 58.03125 C 33.871094 57.679688 33.464844 57.308594 33.074219 56.917969 C 32.683594 56.527344 32.3125 56.121094 31.960938 55.691406 C 31.613281 55.265625 31.285156 54.824219 30.976562 54.363281 C 30.671875 53.902344 30.386719 53.429688 30.125 52.945312 C 29.867188 52.457031 29.628906 51.957031 29.417969 51.449219 C 29.207031 50.9375 29.023438 50.417969 28.859375 49.890625 C 28.699219 49.363281 28.566406 48.828125 28.460938 48.285156 C 28.351562 47.742188 28.269531 47.199219 28.214844 46.648438 C 28.164062 46.097656 28.136719 45.546875 28.136719 44.996094 C 28.136719 44.445312 28.164062 43.894531 28.214844 43.34375 C 28.269531 42.792969 28.351562 42.25 28.460938 41.707031 C 28.566406 41.164062 28.699219 40.628906 28.859375 40.101562 C 29.023438 39.574219 29.207031 39.054688 29.417969 38.542969 C 29.628906 38.035156 29.867188 37.535156 30.125 37.046875 C 30.386719 36.5625 30.671875 36.085938 30.976562 35.628906 C 31.285156 35.167969 31.613281 34.726562 31.960938 34.300781 C 32.3125 33.871094 32.683594 33.464844 33.074219 33.074219 C 33.464844 32.683594 33.871094 32.3125 34.300781 31.960938 C 34.726562 31.613281 35.167969 31.285156 35.628906 30.976562 C 36.089844 30.671875 36.5625 30.386719 37.046875 30.125 C 37.535156 29.867188 38.035156 29.628906 38.542969 29.417969 C 39.054688 29.207031 39.574219 29.023438 40.101562 28.859375 C 40.628906 28.699219 41.164062 28.566406 41.707031 28.460938 C 42.25 28.351562 42.792969 28.269531 43.34375 28.214844 C 43.894531 28.164062 44.445312 28.136719 44.996094 28.136719 C 45.546875 28.136719 46.097656 28.164062 46.648438 28.214844 C 47.199219 28.269531 47.742188 28.351562 48.285156 28.460938 C 48.828125 28.566406 49.363281 28.699219 49.890625 28.859375 C 50.417969 29.023438 50.9375 29.207031 51.449219 29.417969 C 51.957031 29.628906 52.457031 29.867188 52.945312 30.125 C 53.429688 30.386719 53.90625 30.671875 54.363281 30.976562 C 54.824219 31.285156 55.265625 31.613281 55.691406 31.960938 C 56.121094 32.3125 56.527344 32.683594 56.917969 33.074219 C 57.308594 33.464844 57.679688 33.871094 58.03125 34.300781 C 58.378906 34.726562 58.707031 35.167969 59.015625 35.628906 C 59.320312 36.085938 59.605469 36.5625 59.867188 37.046875 C 60.125 37.535156 60.363281 38.035156 60.574219 38.542969 C 60.785156 39.054688 60.96875 39.574219 61.132812 40.101562 C 61.292969 40.628906 61.425781 41.164062 61.53125 41.707031 C 61.640625 42.25 61.722656 42.792969 61.777344 43.34375 C 61.828125 43.894531 61.855469 44.445312 61.855469 44.996094 Z M 61.855469 44.996094 " fill-opacity="1" fill-rule="nonzero"/><g mask="url(#33b356166b)"><g transform="matrix(1, 0, 0, 1, 7, 6)"><g clip-path="url(#97c760d3d1)"><g clip-path="url(#b2bf479b2f)"><path fill="#8c52ff" d="M 36.441406 0.175781 C 36.269531 0.191406 35.714844 0.230469 35.207031 0.273438 C 29.085938 0.765625 22.828125 2.960938 17.574219 6.46875 C 12.46875 9.871094 8.089844 14.660156 5.257812 19.929688 C 5.078125 20.265625 4.835938 20.710938 4.726562 20.910156 C 4.625 21.117188 4.34375 21.6875 4.117188 22.179688 C -0.398438 31.933594 -0.691406 43.089844 3.300781 53.039062 C 7.121094 62.570312 14.726562 70.246094 24.160156 74.125 C 32.441406 77.519531 41.589844 77.863281 50.0625 75.089844 C 54.089844 73.773438 57.644531 71.90625 61.0625 69.339844 C 63.765625 67.304688 66.542969 64.503906 68.636719 61.71875 C 72.046875 57.183594 74.46875 51.722656 75.582031 46.109375 C 76.6875 40.523438 76.570312 34.855469 75.230469 29.367188 C 71.890625 15.601562 61.234375 4.730469 47.722656 1.308594 C 45.664062 0.785156 43.996094 0.5 41.726562 0.273438 C 41.011719 0.195312 37.039062 0.128906 36.441406 0.175781 Z M 40.945312 4.800781 C 44.230469 5.0625 47.261719 5.746094 50.371094 6.929688 C 55.894531 9.035156 60.847656 12.707031 64.644531 17.496094 C 65.261719 18.277344 66.558594 20.191406 67.25 21.335938 C 67.828125 22.304688 69.308594 25.289062 69.308594 25.496094 C 69.308594 25.515625 69.371094 25.660156 69.441406 25.816406 C 69.953125 26.964844 70.820312 29.839844 71.183594 31.628906 C 71.699219 34.15625 71.871094 35.863281 71.875 38.558594 C 71.875 42.046875 71.503906 44.707031 70.550781 48.078125 C 68.15625 56.53125 62.449219 63.804688 54.796875 68.148438 C 50.734375 70.460938 46.332031 71.832031 41.382812 72.332031 C 40.265625 72.449219 36.746094 72.441406 35.585938 72.328125 C 31.960938 71.96875 28.621094 71.132812 25.464844 69.789062 C 24.203125 69.253906 22.28125 68.25 20.96875 67.449219 C 17.648438 65.410156 14.328125 62.371094 11.933594 59.179688 C 8 53.945312 5.695312 47.871094 5.148438 41.277344 C 5.03125 39.816406 5.105469 35.863281 5.285156 34.511719 C 5.578125 32.242188 6.09375 29.921875 6.746094 27.925781 C 7.054688 26.972656 7.796875 25.027344 7.960938 24.714844 C 8 24.652344 8.242188 24.144531 8.503906 23.59375 C 11.417969 17.46875 16.496094 12.121094 22.546875 8.800781 C 26.625 6.5625 31.222656 5.191406 35.929688 4.808594 C 36.9375 4.726562 39.929688 4.71875 40.945312 4.800781 Z M 40.945312 4.800781 " fill-opacity="1" fill-rule="nonzero"/></g></g></g></g><g mask="url(#225dfc4a7e)"><g transform="matrix(1, 0, 0, 1, 14, 12)"><g clip-path="url(#ee98f8857c)"><g clip-path="url(#4cadc70f98)"><path fill="#8c52ff" d="M 29.71875 1.140625 C 29.578125 1.152344 29.121094 1.1875 28.707031 1.21875 C 23.683594 1.625 18.546875 3.425781 14.234375 6.304688 C 10.042969 9.097656 6.453125 13.027344 4.125 17.351562 C 3.980469 17.628906 3.78125 17.996094 3.691406 18.160156 C 3.605469 18.328125 3.375 18.792969 3.191406 19.199219 C -0.515625 27.203125 -0.757812 36.359375 2.519531 44.523438 C 5.65625 52.347656 11.898438 58.648438 19.640625 61.828125 C 26.4375 64.617188 33.941406 64.898438 40.898438 62.621094 C 44.203125 61.542969 47.121094 60.011719 49.925781 57.902344 C 52.144531 56.230469 54.425781 53.933594 56.140625 51.648438 C 58.941406 47.925781 60.929688 43.441406 61.839844 38.835938 C 62.746094 34.253906 62.652344 29.601562 61.554688 25.097656 C 58.8125 13.800781 50.066406 4.878906 38.976562 2.070312 C 37.289062 1.640625 35.917969 1.40625 34.054688 1.21875 C 33.46875 1.15625 30.210938 1.101562 29.71875 1.140625 Z M 33.414062 4.9375 C 36.109375 5.148438 38.601562 5.714844 41.152344 6.683594 C 45.683594 8.410156 49.75 11.421875 52.863281 15.355469 C 53.371094 15.996094 54.433594 17.566406 55.003906 18.507812 C 55.476562 19.300781 56.695312 21.75 56.695312 21.921875 C 56.695312 21.9375 56.742188 22.054688 56.800781 22.183594 C 57.222656 23.125 57.933594 25.484375 58.230469 26.953125 C 58.652344 29.027344 58.792969 30.429688 58.800781 32.640625 C 58.800781 35.503906 58.496094 37.6875 57.710938 40.453125 C 55.746094 47.390625 51.0625 53.359375 44.785156 56.925781 C 41.449219 58.820312 37.835938 59.949219 33.773438 60.359375 C 32.855469 60.453125 29.96875 60.449219 29.015625 60.351562 C 26.042969 60.0625 23.300781 59.375 20.710938 58.269531 C 19.671875 57.832031 18.097656 57.007812 17.019531 56.351562 C 14.296875 54.675781 11.570312 52.183594 9.605469 49.5625 C 6.378906 45.265625 4.484375 40.285156 4.035156 34.871094 C 3.941406 33.671875 4 30.429688 4.148438 29.320312 C 4.390625 27.457031 4.8125 25.550781 5.347656 23.914062 C 5.601562 23.128906 6.210938 21.539062 6.34375 21.277344 C 6.378906 21.226562 6.574219 20.8125 6.789062 20.359375 C 9.183594 15.332031 13.347656 10.945312 18.316406 8.21875 C 21.660156 6.382812 25.433594 5.257812 29.296875 4.941406 C 30.125 4.875 32.582031 4.867188 33.414062 4.9375 Z M 33.414062 4.9375 " fill-opacity="1" fill-rule="nonzero"/></g></g></g></g></svg>